<svg width="20" height="20" viewBox="0 0 20 20" fill="none" xmlns="http://www.w3.org/2000/svg">
<path class="icon__color-element" d="M7.50016 4.16666C7.27915 4.16666 7.06719 4.25446 6.91091 4.41074C6.75463 4.56702 6.66683 4.77898 6.66683 5C6.66683 5.22101 6.75463 5.43297 6.91091 5.58925C7.06719 5.74553 7.27915 5.83333 7.50016 5.83333C7.72118 5.83333 7.93314 5.74553 8.08942 5.58925C8.2457 5.43297 8.3335 5.22101 8.3335 5C8.3335 4.77898 8.2457 4.56702 8.08942 4.41074C7.93314 4.25446 7.72118 4.16666 7.50016 4.16666ZM5.14183 4.16666C5.314 3.67872 5.63328 3.25619 6.05566 2.95732C6.47805 2.65845 6.98273 2.49796 7.50016 2.49796C8.01759 2.49796 8.52228 2.65845 8.94466 2.95732C9.36705 3.25619 9.68633 3.67872 9.8585 4.16666H15.8335C16.0545 4.16666 16.2665 4.25446 16.4228 4.41074C16.579 4.56702 16.6668 4.77898 16.6668 5C16.6668 5.22101 16.579 5.43297 16.4228 5.58925C16.2665 5.74553 16.0545 5.83333 15.8335 5.83333H9.8585C9.68633 6.32127 9.36705 6.7438 8.94466 7.04267C8.52228 7.34154 8.01759 7.50204 7.50016 7.50204C6.98273 7.50204 6.47805 7.34154 6.05566 7.04267C5.63328 6.7438 5.314 6.32127 5.14183 5.83333H4.16683C3.94582 5.83333 3.73385 5.74553 3.57757 5.58925C3.42129 5.43297 3.3335 5.22101 3.3335 5C3.3335 4.77898 3.42129 4.56702 3.57757 4.41074C3.73385 4.25446 3.94582 4.16666 4.16683 4.16666H5.14183ZM12.5002 9.16666C12.2791 9.16666 12.0672 9.25446 11.9109 9.41074C11.7546 9.56702 11.6668 9.77898 11.6668 10C11.6668 10.221 11.7546 10.433 11.9109 10.5893C12.0672 10.7455 12.2791 10.8333 12.5002 10.8333C12.7212 10.8333 12.9331 10.7455 13.0894 10.5893C13.2457 10.433 13.3335 10.221 13.3335 10C13.3335 9.77898 13.2457 9.56702 13.0894 9.41074C12.9331 9.25446 12.7212 9.16666 12.5002 9.16666ZM10.1418 9.16666C10.314 8.67872 10.6333 8.25619 11.0557 7.95732C11.478 7.65845 11.9827 7.49795 12.5002 7.49795C13.0176 7.49795 13.5223 7.65845 13.9447 7.95732C14.367 8.25619 14.6863 8.67872 14.8585 9.16666H15.8335C16.0545 9.16666 16.2665 9.25446 16.4228 9.41074C16.579 9.56702 16.6668 9.77898 16.6668 10C16.6668 10.221 16.579 10.433 16.4228 10.5893C16.2665 10.7455 16.0545 10.8333 15.8335 10.8333H14.8585C14.6863 11.3213 14.367 11.7438 13.9447 12.0427C13.5223 12.3415 13.0176 12.502 12.5002 12.502C11.9827 12.502 11.478 12.3415 11.0557 12.0427C10.6333 11.7438 10.314 11.3213 10.1418 10.8333H4.16683C3.94582 10.8333 3.73385 10.7455 3.57757 10.5893C3.42129 10.433 3.3335 10.221 3.3335 10C3.3335 9.77898 3.42129 9.56702 3.57757 9.41074C3.73385 9.25446 3.94582 9.16666 4.16683 9.16666H10.1418ZM7.50016 14.1667C7.27915 14.1667 7.06719 14.2545 6.91091 14.4107C6.75463 14.567 6.66683 14.779 6.66683 15C6.66683 15.221 6.75463 15.433 6.91091 15.5893C7.06719 15.7455 7.27915 15.8333 7.50016 15.8333C7.72118 15.8333 7.93314 15.7455 8.08942 15.5893C8.2457 15.433 8.3335 15.221 8.3335 15C8.3335 14.779 8.2457 14.567 8.08942 14.4107C7.93314 14.2545 7.72118 14.1667 7.50016 14.1667ZM5.14183 14.1667C5.314 13.6787 5.63328 13.2562 6.05566 12.9573C6.47805 12.6585 6.98273 12.498 7.50016 12.498C8.01759 12.498 8.52228 12.6585 8.94466 12.9573C9.36705 13.2562 9.68633 13.6787 9.8585 14.1667H15.8335C16.0545 14.1667 16.2665 14.2545 16.4228 14.4107C16.579 14.567 16.6668 14.779 16.6668 15C16.6668 15.221 16.579 15.433 16.4228 15.5893C16.2665 15.7455 16.0545 15.8333 15.8335 15.8333H9.8585C9.68633 16.3213 9.36705 16.7438 8.94466 17.0427C8.52228 17.3415 8.01759 17.502 7.50016 17.502C6.98273 17.502 6.47805 17.3415 6.05566 17.0427C5.63328 16.7438 5.314 16.3213 5.14183 15.8333H4.16683C3.94582 15.8333 3.73385 15.7455 3.57757 15.5893C3.42129 15.433 3.3335 15.221 3.3335 15C3.3335 14.779 3.42129 14.567 3.57757 14.4107C3.73385 14.2545 3.94582 14.1667 4.16683 14.1667H5.14183Z" fill="#000000"/>
</svg>
