<svg width="20" height="21" viewBox="0 0 20 21" fill="none" xmlns="http://www.w3.org/2000/svg">
  <path class="icon__color-element" d="M15.8334 18.8333H4.16675C3.94573 18.8333 3.73377 18.7455 3.57749 18.5893C3.42121 18.433 3.33341 18.221 3.33341 18V11.3333H1.66675L9.41008 3.58916C9.48748 3.51168 9.57938 3.45022 9.68055 3.40828C9.78171 3.36634 9.89015 3.34476 9.99966 3.34476C10.1092 3.34476 10.2176 3.36634 10.3188 3.40828C10.4199 3.45022 10.5119 3.51168 10.5892 3.58916L18.3334 11.3333H16.6667V18C16.6667 18.221 16.579 18.433 16.4227 18.5893C16.2664 18.7455 16.0544 18.8333 15.8334 18.8333ZM8.33341 13H11.6667V17.1667H15.0001V10.3567L10.0001 5.35666L5.00008 10.3567V17.1667H8.33341V13Z" fill="#000000"/>
</svg>
