<svg width="60" height="60" viewBox="0 0 60 60" fill="none" xmlns="http://www.w3.org/2000/svg">
<path class="icon__color-element" d="M48.0917 23.4655C48.0917 23.5055 48.0917 23.5464 48.0917 23.5882C48.0235 33.5373 39.9372 41.5827 29.9744 41.5827C21.0835 41.5827 13.6899 35.1791 12.149 26.7327C11.9908 25.6746 11.9062 24.5918 11.9062 23.49C11.9062 13.4973 20.0063 5.39728 29.999 5.39728C39.9508 5.39728 48.029 13.4346 48.0917 23.3727C48.0917 23.4036 48.0917 23.4346 48.0917 23.4655Z" fill="#BF2828"/>
<path d="M43.1334 23.4655C43.1334 30.7337 37.2425 36.6246 29.9743 36.6246C22.7034 36.6246 16.8125 30.7337 16.8125 23.4655C16.8125 16.1946 22.7034 10.3036 29.9743 10.3036C37.2425 10.3036 43.1334 16.1946 43.1334 23.4655Z" fill="white"/>
<path class="icon__color-element" d="M43.5977 37.6146C39.4496 44.1927 33.575 48.9518 31.1314 50.7655C30.4605 51.2646 29.5387 51.2646 28.8677 50.7655C26.4405 48.9627 20.6232 44.2527 16.4805 37.7373C19.9987 41.0673 24.7468 43.1073 29.975 43.1073C35.2632 43.1073 40.0659 41.0155 43.5977 37.6146Z" fill="#BF2828"/>
<path class="icon__color-element" d="M30.9335 14.94L33.0608 19.3664L37.929 20.0237C38.8154 20.1437 39.1699 21.2346 38.5235 21.8509L34.9726 25.2437L35.8508 30.0764C36.0117 30.9573 35.0844 31.6309 34.2963 31.2055L29.9735 28.8764L25.6481 31.2055C24.8626 31.6309 23.9326 30.9573 24.0935 30.0764L24.9744 25.2437L21.4208 21.8509C20.7744 21.2346 21.129 20.1437 22.0154 20.0237L26.8835 19.3664L29.0108 14.94C29.3981 14.1355 30.5463 14.1355 30.9335 14.94Z" fill="#BF2828"/>
<path d="M41.585 53.8227C41.585 54.2537 36.3977 54.6027 29.9995 54.6027C23.6013 54.6027 18.4141 54.2537 18.4141 53.8227C18.4141 53.3946 23.6013 53.0455 29.9995 53.0455C36.3977 53.0455 41.585 53.3946 41.585 53.8227Z" fill="#CECECE"/>
</svg>
