<svg width="17" height="16" viewBox="0 0 17 16" fill="none" xmlns="http://www.w3.org/2000/svg">
<path class="icon__color-element" d="M14.5 3C14.5 2.73478 14.3946 2.48043 14.2071 2.29289C14.0196 2.10536 13.7652 2 13.5 2H11.5V1H10.5V2H6.5V1H5.5V2H3.5C3.23478 2 2.98043 2.10536 2.79289 2.29289C2.60536 2.48043 2.5 2.73478 2.5 3V13C2.5 13.2652 2.60536 13.5196 2.79289 13.7071C2.98043 13.8946 3.23478 14 3.5 14H5.5V13H3.5V3H5.5V4H6.5V3H10.5V4H11.5V3H13.5V6H14.5V3Z" fill="#000000"/>
<path class="icon__color-element" d="M11 7.5L12.2745 9.969L15 10.3645L13 12.2865L13.5 15L11 13.719L8.5 15L9 12.2865L7 10.3645L9.8 9.969L11 7.5Z" fill="#000000"/>
</svg>
