<svg width="35" height="19" viewBox="0 0 35 19" fill="none" xmlns="http://www.w3.org/2000/svg">
<path class="icon__color-element" d="M2.36401 9.29268H13.6363L12.1806 15.9366H3.07317L2.36401 9.29268ZM21.4 9.29268H32.6722L31.963 15.9366H22.8557L21.4 9.29268ZM0.311085 7.35176C0.0621474 7.62546 -0.0374002 7.92406 0.0125039 8.24758L0.98294 17.2057C1.11603 17.7914 1.53355 18.2429 2.10273 18.2508H13.0764C13.6665 18.2115 14.0575 17.8414 14.1588 17.3177L15.9131 9.51665C16.8624 8.92541 18.1106 9.01157 19.1231 9.44198L20.8773 17.3176C21.0165 17.885 21.4214 18.2442 21.9598 18.2508H32.9335C33.5508 18.202 33.9631 17.7567 34.0159 17.2057L34.9864 8.24758C35.0362 7.89924 34.9491 7.60061 34.7252 7.35176L22.1092 0.857126C21.504 0.587188 20.9047 0.84645 20.6535 1.37968C20.4428 1.98873 20.5796 2.68249 21.1387 2.94736L29.1263 6.56793H6.02189L14.0095 2.94733C14.602 2.61144 14.7553 1.93498 14.5321 1.37965C14.2153 0.811509 13.5735 0.622917 13.0391 0.857096L0.311085 7.35176Z" fill="#000000"/>
</svg>
