<svg width="16" height="12" viewBox="0 0 16 12" fill="none" xmlns="http://www.w3.org/2000/svg">
<path class="icon__color-element" d="M15.6667 2.33821C15.5761 2.01503 15.3996 1.72244 15.156 1.49155C14.9056 1.25355 14.5986 1.0833 14.264 0.99688C13.012 0.66688 7.99605 0.66688 7.99605 0.66688C5.90493 0.643089 3.81433 0.74773 1.73605 0.980213C1.40151 1.07302 1.09509 1.24707 0.844045 1.48688C0.597379 1.72421 0.418712 2.01688 0.325379 2.33755C0.101174 3.54538 -0.00776008 4.77178 4.52446e-05 6.00021C-0.00795476 7.22755 0.100712 8.45355 0.325379 9.66288C0.416712 9.98221 0.594712 10.2735 0.842045 10.5089C1.08938 10.7442 1.39738 10.9142 1.73605 11.0042C3.00471 11.3335 7.99605 11.3335 7.99605 11.3335C10.0898 11.3574 12.1831 11.2527 14.264 11.0202C14.5986 10.9338 14.9056 10.7635 15.156 10.5255C15.3996 10.2947 15.5758 10.0021 15.666 9.67888C15.8961 8.47152 16.008 7.24461 16 6.01555C16.0173 4.78128 15.9056 3.54859 15.6667 2.33755V2.33821ZM6.40138 8.28288V3.71821L10.5747 6.00088L6.40138 8.28288Z" fill="#000000"/>
</svg>
