<svg width="12" height="7" viewBox="0 0 12 7" fill="none" xmlns="http://www.w3.org/2000/svg">
<path class="icon__color-element" d="M0.700781 6.69999C0.517448 6.51665 0.425781 6.28332 0.425781 5.99999C0.425781 5.71665 0.517448 5.48332 0.700781 5.29999L5.30078 0.699987C5.40078 0.599987 5.50911 0.528988 5.62578 0.486988C5.74245 0.445655 5.86745 0.424988 6.00078 0.424988C6.13411 0.424988 6.26345 0.449988 6.38878 0.499988C6.51345 0.549988 6.61745 0.616654 6.70078 0.699987L11.3008 5.29999C11.4841 5.48332 11.5758 5.71665 11.5758 5.99999C11.5758 6.28332 11.4841 6.51665 11.3008 6.69999C11.1174 6.88332 10.8841 6.97499 10.6008 6.97499C10.3174 6.97499 10.0841 6.88332 9.90078 6.69999L6.00078 2.79999L2.10078 6.69999C1.91745 6.88332 1.68411 6.97499 1.40078 6.97499C1.11745 6.97499 0.884114 6.88332 0.700781 6.69999Z" fill="#000000"/>
</svg>
