<svg width="15" height="15" viewBox="0 0 15 15" fill="none" xmlns="http://www.w3.org/2000/svg">
<path fill-rule="evenodd" clip-rule="evenodd" d="M7.49962 14.0625C7.3753 14.0625 7.25607 14.0131 7.16816 13.9252C7.08025 13.8373 7.03087 13.7181 7.03087 13.5937L7.03087 2.53781L4.08149 5.48812C3.99347 5.57614 3.87409 5.62559 3.74962 5.62559C3.62514 5.62559 3.50576 5.57614 3.41774 5.48812C3.32972 5.40011 3.28027 5.28073 3.28027 5.15625C3.28027 5.03177 3.32972 4.91239 3.41774 4.82437L7.16774 1.07437C7.21128 1.03072 7.26301 0.996087 7.31996 0.972456C7.37691 0.948825 7.43796 0.936662 7.49962 0.936662C7.56127 0.936662 7.62232 0.948825 7.67927 0.972456C7.73622 0.996087 7.78795 1.03072 7.83149 1.07437L11.5815 4.82437C11.6695 4.91239 11.719 5.03177 11.719 5.15625C11.719 5.28073 11.6695 5.40011 11.5815 5.48812C11.4935 5.57614 11.3741 5.62559 11.2496 5.62559C11.1251 5.62559 11.0058 5.57614 10.9177 5.48812L7.96837 2.53781L7.96837 13.5937C7.96837 13.7181 7.91898 13.8373 7.83107 13.9252C7.74316 14.0131 7.62394 14.0625 7.49962 14.0625Z" fill="white"/>
</svg>
