<svg width="16" height="10" viewBox="0 0 16 10" fill="none" xmlns="http://www.w3.org/2000/svg">
<path class="icon__color-element" fill-rule="evenodd" clip-rule="evenodd" d="M15.6333 0.965496C15.744 0.601496 15.6333 0.333496 15.1033 0.333496H13.3533C12.908 0.333496 12.7027 0.564829 12.5913 0.820163C12.5913 0.820163 11.7013 2.95083 10.4407 4.33483C10.0327 4.73616 9.84733 4.8635 9.62467 4.8635C9.51333 4.8635 9.346 4.73616 9.346 4.3715V0.965496C9.346 0.528163 9.22333 0.333496 8.85267 0.333496H6.10067C5.82267 0.333496 5.65533 0.536163 5.65533 0.728829C5.65533 1.14283 6.286 1.23883 6.35067 2.40416V4.93616C6.35067 5.4915 6.24867 5.59216 6.026 5.59216C5.43267 5.59216 3.98933 3.4515 3.13267 1.00216C2.96667 0.525496 2.79867 0.333496 2.35133 0.333496H0.6C0.1 0.333496 0 0.564829 0 0.820163C0 1.27483 0.593333 3.5335 2.76333 6.52083C4.21 8.56083 6.24667 9.66683 8.102 9.66683C9.21467 9.66683 9.352 9.4215 9.352 8.99816V7.45616C9.352 6.96483 9.45733 6.86683 9.81 6.86683C10.07 6.86683 10.5147 6.99483 11.5533 7.97816C12.74 9.14416 12.9353 9.66683 13.6033 9.66683H15.3533C15.8533 9.66683 16.104 9.4215 15.96 8.93616C15.8013 8.4535 15.2347 7.75283 14.4833 6.9215C14.0753 6.44816 13.4633 5.93816 13.2773 5.68283C13.018 5.3555 13.092 5.2095 13.2773 4.91816C13.2773 4.91816 15.4107 1.9675 15.6327 0.965496H15.6333Z" fill="#000000"/>
</svg>
