<svg width="12" height="13" viewBox="0 0 12 13" fill="none" xmlns="http://www.w3.org/2000/svg">
<g opacity="0.5">
<path d="M8.97305 6.20469L3.69024 2.07852C3.67643 2.06765 3.65984 2.06089 3.64237 2.05903C3.6249 2.05717 3.60726 2.06027 3.59147 2.06798C3.57569 2.07569 3.5624 2.08769 3.55312 2.10262C3.54385 2.11754 3.53898 2.13478 3.53906 2.15234V3.0582C3.53906 3.11562 3.56602 3.1707 3.61055 3.20586L7.8293 6.5L3.61055 9.79414C3.56484 9.8293 3.53906 9.88438 3.53906 9.9418V10.8477C3.53906 10.9262 3.6293 10.9695 3.69024 10.9215L8.97305 6.79531C9.01795 6.76029 9.05427 6.71549 9.07925 6.66431C9.10424 6.61314 9.11722 6.55695 9.11722 6.5C9.11722 6.44305 9.10424 6.38686 9.07925 6.33569C9.05427 6.28451 9.01795 6.23971 8.97305 6.20469Z" fill="black"/>
</g>
</svg>
