<svg width="20" height="20" viewBox="0 0 20 20" fill="none" xmlns="http://www.w3.org/2000/svg">
<g clip-path="url(#clip0_469_3219)">
<path d="M19.8942 9.92656C19.8942 15.3912 15.4642 19.8206 9.99984 19.8206C4.53516 19.8206 0.105469 15.3912 0.105469 9.92656C0.105469 4.46124 4.53516 0.0321808 9.99984 0.0321808C15.4642 0.0321808 19.8942 4.46124 19.8942 9.92656Z" fill="#FBBF67"/>
<path d="M16.2169 12.2125C16.2169 15.6175 13.4544 18.3797 10.0494 18.3797C6.64629 18.3797 3.88379 15.6172 3.88379 12.2125" fill="#633D19"/>
<path d="M15.1593 12.8344C15.1593 14.194 12.8243 15.2981 9.94559 15.2981C7.06902 15.2981 4.7334 14.194 4.7334 12.8344" fill="white"/>
<path d="M5.97854 10.7978C6.14104 10.8678 6.27948 10.9259 6.41948 10.9828L6.67854 11.0884C6.72635 11.0147 6.77854 10.9353 6.82979 10.854C6.91198 10.7265 6.99323 10.5984 7.07167 10.4712C8.08135 8.70623 9.21073 6.73185 8.65698 4.89717C8.60016 4.7432 8.52715 4.59571 8.43917 4.45717C8.34272 4.30495 8.23099 4.16296 8.10573 4.03342C7.78854 3.72967 7.19354 3.57936 6.66635 3.67811C5.66448 3.86873 5.37729 4.53685 5.12917 5.33217L4.99604 5.75592L4.64385 5.48467C4.04573 5.02342 3.48667 4.66404 2.69104 4.91467C2.60729 4.94123 2.5226 4.97404 2.43542 5.01373C1.9476 5.23529 1.54573 5.69904 1.45917 6.14092C1.43178 6.31564 1.42225 6.4927 1.43073 6.66935C1.43917 6.83842 1.46604 7.00779 1.50948 7.1706C2.10385 8.97373 4.16292 9.94342 5.97854 10.7978ZM14.0289 10.7978C13.867 10.8678 13.7279 10.9259 13.5879 10.9828C13.502 11.0184 13.4151 11.0534 13.3285 11.0884C13.2817 11.0147 13.2295 10.9353 13.1776 10.854C13.0948 10.7265 13.0151 10.5984 12.936 10.4712C11.9264 8.70623 10.7964 6.73185 11.3507 4.89717C11.4023 4.75498 11.4779 4.60185 11.5685 4.45717C11.6653 4.30501 11.7772 4.16303 11.9026 4.03342C12.2198 3.72967 12.8142 3.57936 13.3417 3.67811C14.3429 3.86873 14.6298 4.53685 14.8795 5.33217L15.012 5.75592L15.3642 5.48467C15.9617 5.02342 16.5217 4.66404 17.3176 4.91467C17.3998 4.94123 17.4851 4.97404 17.5729 5.01373C18.061 5.23529 18.4617 5.69904 18.5489 6.14092C18.576 6.31092 18.586 6.4931 18.5773 6.66935C18.569 6.83877 18.5426 7.00681 18.4985 7.1706C17.9032 8.97373 15.8454 9.94342 14.0289 10.7978Z" fill="#D13852"/>
</g>
<defs>
<clipPath id="clip0_469_3219">
<rect width="20" height="20" fill="white"/>
</clipPath>
</defs>
</svg>
