<svg width="22" height="24" fill="none" xmlns="http://www.w3.org/2000/svg"><path fill-rule="evenodd" clip-rule="evenodd" d="M10.247.192C9.94.3 9.438.635 9.133.937l-.555.55-.612-.215c-.759-.267-1.441-.109-2.025.47-.96.95-.748 2.333.536 3.49.63.568.92.726 1.512.828.496.085.567.169.336.397-.239.237.37 1.167.765 1.167.113 0 .43-.113.703-.251.62-.313.704-.312 1.263.014.533.312.445.538-.258.669-.567.105-.47.247.358.519l.663.218-.38.115c-.784.237-.778.23-.411.422.403.21.424.319.144.742-.204.308-.203.31.23.31 1.177 0 2.48.736 2.85 1.61.205.487.153.657-.074.237-.293-.541-.965-.874-1.885-.932-.763-.049-.893-.022-1.23.252-.339.277-.358.329-.19.528.175.21.116.218-1.112.16-1.08-.052-1.297-.032-1.297.12 0 .124-.071.154-.222.093-1.125-.451-1.279-.485-1.476-.323-.179.147-.173.2.062.525.243.339.245.362.03.358-.127-.003-.586-.08-1.022-.173-.518-.11-.791-.123-.791-.039 0 .258.675.998 1.06 1.164l.396.17-.657.005c-.362.003-.696.067-.743.141-.046.075.104.33.334.564.23.236.363.428.293.428s-.19-.062-.267-.139c-.244-.241-.416.008-.416.6 0 .533-.02.566-.285.491-.876-.247-.969-.242-.892.048.04.152.262.458.493.68l.42.405-.708.462c-.755.491-1.437.601-1.98.318-.441-.23-.47-.381-.141-.767.379-.446.395-.977.04-1.295a4.519 4.519 0 01-.529-.602l-.262-.364.656.086c.744.098 1.162-.055 1.162-.426 0-.274-.24-.354-1.203-.404l-.633-.033-.04-.6c-.035-.564-.023-.592.203-.453.355.22.894.044.986-.32.114-.45-.06-.645-.288-.322-.148.21-.225.235-.365.12-.097-.08-.349-.12-.558-.09-.21.03-.381.003-.381-.06 0-.064.62-.717 1.38-1.452 1.59-1.54 1.772-1.79 1.893-2.613l.088-.603.995.046c.665.03.968.002.913-.085-.044-.071-.265-.166-.49-.211-.886-.177-.873-.165-.663-.567.104-.199.189-.433.189-.522 0-.088-.52.629-1.155 1.593-.921 1.396-1.437 2.023-2.543 3.091-1.568 1.515-1.658 1.749-.829 2.15l.475.23v.914c0 .502.082 1.144.182 1.425.1.282.172.877.16 1.33-.022.733.01.853.31 1.15.291.288.49.346 1.54.448 2.474.24 2.924.521 2.932 1.83.003.601-.055.793-.362 1.19-.201.26-.335.504-.297.541.083.083.62-.613.908-1.178.117-.228.24-.679.274-1.003.111-1.051-.392-1.565-1.787-1.822-1.017-.187-.958-.267.474-.64.595-.154 1.34-.52 2.47-1.212 1.67-1.025 2.561-1.426 3.485-1.572l.537-.085-.41.463c-.586.66-.92 1.37-.92 1.957 0 .532.076.632.887 1.163.647.424.633.729-.059 1.302-.318.263-.553.547-.52.63.031.082-.139.298-.378.479-.24.18-.436.379-.436.44 0 .062.23.13.51.15l.509.04-1.199.861c-1.258.905-1.812 1.407-1.689 1.53.08.078 1.67-.46 3.008-1.018.472-.197 1.579-.473 2.596-.648 1.751-.301 2.432-.545 2.266-.81-.137-.22-1.885-.034-3.078.326-.587.177-1.1.289-1.14.249-.04-.04.11-.234.333-.432.478-.423 1.423-.73 2.57-.833 1.279-.116 1.297-.209.135-.68-1.128-.456-1.192-.623-.119-.308.801.236 1.506.147 1.598-.201.04-.148.14-.215.269-.178 1.006.295 1.722.138 2.435-.531.363-.341.536-.64.663-1.145.095-.376.238-.705.318-.731.313-.104.116-.217-.42-.24-.605-.028-1.18-.267-1.47-.613-.17-.204-.158-.204.224-.009 1.132.58 2.451-.143 3.056-1.673.069-.172.244-.606.39-.963.335-.824.336-1.569.001-2.253-.321-.658-.85-1.116-1.515-1.313-.587-.174-.593-.213-.248-1.55.43-1.666.29-2.687-.481-3.49-.63-.658-2.095-1.163-2.472-.854-.18.148-.352.07-1.312-.588-.56-.384-.665-.411-1.285-.342-.82.092-1.277.313-1.715.828-.36.424-.438.31-.154-.23.276-.525.74-.893 1.528-1.21.691-.278.71-.298.459-.473-.145-.1-.424-.419-.62-.707C13.12.17 11.651-.3 10.247.192zm-5.17 5.74c.001.275.027.373.057.217.03-.156.03-.381-.002-.501s-.057.008-.055.283zm-.47 3.337c.102.285.185.708.185.94 0 .506.102.52.76.11.275-.173.644-.314.82-.314.175 0 .319-.053.319-.119 0-.194-.8-.739-1.386-.944-.86-.3-.912-.275-.698.327z" fill="#433C3C"/></svg>