<svg xmlns="http://www.w3.org/2000/svg" xmlns:xlink="http://www.w3.org/1999/xlink" viewBox="0 0 384 272"><defs><path id="a" d="M0 0h384v272H0z"/></defs><clipPath id="b"><use xlink:href="#a" overflow="visible"/></clipPath><path clip-path="url(#b)" d="M375.5 38.9l.5 3.1c-4.6-16.5-17.2-29.2-33.1-33.8l-.3-.1C312.6 0 192.2 0 192.2 0S72-.2 41.8 8.1C25.5 12.8 13 25.5 8.4 41.7v.3c-11.2 58.4-11.3 128.6.5 191.2l-.5-3.2c4.6 16.5 17.2 29.2 33.1 33.8l.3.1c29.9 8.1 150.4 8.1 150.4 8.1s120.1 0 150.4-8.1c16.2-4.7 28.8-17.4 33.3-33.5l.1-.3c5.1-27.2 8-58.4 8-90.4v-3.5-3.7c0-32.1-2.9-63.3-8.5-93.6zM153.7 194.4V77.7L254 136.2l-100.3 58.2zm0 0"/></svg>