<svg xmlns="http://www.w3.org/2000/svg" viewBox="-49 252.1 512 289.7"><path d="M391.6 436.4c17 16.6 34.9 32.2 50.1 50.4 6.7 8.1 13.1 16.5 18 25.9 6.9 13.4.7 28.1-11.3 28.9h-74.6c-19.2 1.6-34.6-6.1-47.5-19.3-10.3-10.5-19.9-21.7-29.8-32.6-4.1-4.4-8.3-8.6-13.4-11.9-10.2-6.6-19-4.6-24.8 6-5.9 10.8-7.3 22.8-7.9 34.8-.8 17.6-6.1 22.2-23.8 23-37.7 1.8-73.5-3.9-106.7-22.9-29.3-16.8-52-40.4-71.8-67.2C9.6 399.3-19.9 342-46.4 283c-6-13.3-1.6-20.4 13.1-20.7 24.3-.5 48.7-.4 73 0 9.9.1 16.4 5.8 20.3 15.2 13.2 32.4 29.3 63.2 49.5 91.7 5.4 7.6 10.9 15.2 18.7 20.5 8.6 5.9 15.2 4 19.3-5.7 2.6-6.1 3.7-12.7 4.3-19.2 1.9-22.5 2.2-45-1.2-67.4-2.1-14-10-23.1-23.9-25.7-7.1-1.4-6.1-4-2.6-8.1 6-7 11.6-11.4 22.9-11.4h84.3c13.3 2.6 16.2 8.6 18 21.9l.1 93.6c-.1 5.2 2.6 20.5 11.9 23.9 7.5 2.4 12.4-3.5 16.8-8.3 20.2-21.4 34.6-46.7 47.5-73 5.7-11.5 10.6-23.5 15.4-35.5 3.5-8.9 9.1-13.2 19.1-13l80.9.2c2.4 0 4.8 0 7.2.4 13.7 2.3 17.4 8.2 13.2 21.6-6.7 20.9-19.6 38.4-32.3 55.9-13.5 18.7-28 36.8-41.4 55.6-12.3 17.3-11.4 25.9 3.9 40.9z"/></svg>