<svg xmlns="http://www.w3.org/2000/svg" xmlns:xlink="http://www.w3.org/1999/xlink" viewBox="0 0 384.1 384"><defs><path id="a" d="M0 0h384v384H0z"/></defs><clipPath id="b"><use xlink:href="#a" overflow="visible"/></clipPath><path clip-path="url(#b)" d="M372.9 232.8c27.8-125-81.7-238.5-210.2-216.7C92.9-27.2 0 21.7 0 104.8c0 19.3 5.3 37.4 14.6 53-25.8 125.3 84.5 237.1 213 213.9 15 7.9 32.1 12.4 50.2 12.4 79.2-.1 129.9-82.2 95.1-151.3zm-179.4 85.3c-37.5 0-74.1-9-95.7-40-32.3-45.7 10.3-68.5 31.2-51.1 17.4 14.7 12 50.3 63.2 50.3 22.6 0 50.4-9.6 50.4-32 0-45-99.9-23.7-139.6-72.8-14.6-18-17.3-49.7.6-72.7 31.2-40.2 122.9-42.6 162.3-12.3 36.4 28.2 26.6 65.5-2.8 65.5-35.3 0-16.8-46.2-73.8-46.2-41.3 0-57.6 29.4-28.5 43.7 38.7 19.2 140 13.2 140 89.6-.1 53.7-52 78-107.3 78zm0 0"/></svg>