<svg width="12" height="12" viewBox="0 0 12 12" fill="none" xmlns="http://www.w3.org/2000/svg">
<path d="M11.2492 0.758337C11.1721 0.681084 11.0805 0.619794 10.9797 0.577976C10.8789 0.536158 10.7708 0.514633 10.6617 0.514633C10.5526 0.514633 10.4445 0.536158 10.3437 0.577976C10.2429 0.619794 10.1513 0.681084 10.0742 0.758337L5.99921 4.825L1.92421 0.750003C1.84706 0.672851 1.75547 0.611651 1.65466 0.569897C1.55386 0.528143 1.44582 0.506653 1.33671 0.506653C1.2276 0.506653 1.11956 0.528143 1.01876 0.569897C0.917954 0.611651 0.826361 0.672851 0.74921 0.750003C0.672058 0.827155 0.610858 0.918747 0.569104 1.01955C0.52735 1.12035 0.505859 1.22839 0.505859 1.3375C0.505859 1.44661 0.52735 1.55465 0.569104 1.65546C0.610858 1.75626 0.672058 1.84785 0.74921 1.925L4.82421 6L0.74921 10.075C0.672058 10.1522 0.610858 10.2437 0.569104 10.3446C0.52735 10.4454 0.505859 10.5534 0.505859 10.6625C0.505859 10.7716 0.52735 10.8797 0.569104 10.9805C0.610858 11.0813 0.672058 11.1729 0.74921 11.25C0.826361 11.3272 0.917954 11.3884 1.01876 11.4301C1.11956 11.4719 1.2276 11.4934 1.33671 11.4934C1.44582 11.4934 1.55386 11.4719 1.65466 11.4301C1.75547 11.3884 1.84706 11.3272 1.92421 11.25L5.99921 7.175L10.0742 11.25C10.1514 11.3272 10.243 11.3884 10.3438 11.4301C10.4446 11.4719 10.5526 11.4934 10.6617 11.4934C10.7708 11.4934 10.8789 11.4719 10.9797 11.4301C11.0805 11.3884 11.1721 11.3272 11.2492 11.25C11.3264 11.1729 11.3876 11.0813 11.4293 10.9805C11.4711 10.8797 11.4926 10.7716 11.4926 10.6625C11.4926 10.5534 11.4711 10.4454 11.4293 10.3446C11.3876 10.2437 11.3264 10.1522 11.2492 10.075L7.17421 6L11.2492 1.925C11.5659 1.60834 11.5659 1.075 11.2492 0.758337Z" fill="#C67878"/>
</svg>
