<svg width="20" height="20" fill="none" xmlns="http://www.w3.org/2000/svg"><g clip-path="url(#clip0_469_3219)"><path d="M19.894 9.927c0 5.464-4.43 9.894-9.894 9.894-5.465 0-9.895-4.43-9.895-9.894A9.894 9.894 0 0110 .032c5.464 0 9.894 4.43 9.894 9.895z" fill="#FBBF67"/><path d="M16.217 12.213a6.169 6.169 0 01-6.168 6.167 6.169 6.169 0 01-6.165-6.167" fill="#633D19"/><path d="M15.16 12.834c0 1.36-2.336 2.464-5.214 2.464-2.877 0-5.213-1.104-5.213-2.464" fill="#fff"/><path d="M5.979 10.798c.162.07.3.128.44.185l.26.105c.047-.073.1-.153.15-.234.083-.127.164-.256.243-.383 1.01-1.765 2.139-3.74 1.585-5.574a2.317 2.317 0 00-.218-.44 2.65 2.65 0 00-.333-.424c-.317-.303-.912-.454-1.44-.355-1.002.19-1.289.859-1.537 1.654l-.133.424-.352-.271c-.598-.462-1.157-.821-1.953-.57a2.163 2.163 0 00-.256.099c-.487.221-.89.685-.976 1.127a2.605 2.605 0 00-.028.528c.008.17.035.339.078.502.595 1.803 2.654 2.772 4.47 3.627zm8.05 0c-.162.07-.301.128-.441.185l-.26.105-.15-.234a23.007 23.007 0 01-.242-.383c-1.01-1.765-2.14-3.74-1.585-5.574.051-.142.127-.295.217-.44a2.74 2.74 0 01.335-.424c.317-.303.911-.454 1.439-.355 1 .19 1.288.859 1.537 1.654l.133.424.352-.271c.598-.462 1.158-.821 1.954-.57.082.026.167.059.255.099.488.221.889.685.976 1.127.027.17.037.352.028.528-.008.17-.034.338-.079.502-.595 1.803-2.653 2.772-4.47 3.627z" fill="#D13852"/></g><defs><clipPath id="clip0_469_3219"><path fill="#fff" d="M0 0h20v20H0z"/></clipPath></defs></svg>