<svg width="16" height="16" viewBox="0 0 16 16" fill="none" xmlns="http://www.w3.org/2000/svg">
<path fill-rule="evenodd" clip-rule="evenodd" d="M10.75 1C10.5511 1 10.3603 1.07902 10.2197 1.21967C10.079 1.36032 10 1.55109 10 1.75C10 1.94891 10.079 2.13968 10.2197 2.28033C10.3603 2.42098 10.5511 2.5 10.75 2.5H12.44L8.22 6.72C8.08752 6.86217 8.0154 7.05022 8.01882 7.24452C8.02225 7.43882 8.10097 7.62421 8.23838 7.76162C8.37579 7.89903 8.56118 7.97775 8.75548 7.98117C8.94978 7.9846 9.13783 7.91248 9.28 7.78L13.5 3.56V5.25C13.5 5.44891 13.579 5.63968 13.7197 5.78033C13.8603 5.92098 14.0511 6 14.25 6C14.4489 6 14.6397 5.92098 14.7803 5.78033C14.921 5.63968 15 5.44891 15 5.25V1H10.75ZM2.5 4V13C2.5 13.1326 2.55268 13.2598 2.64645 13.3536C2.74021 13.4473 2.86739 13.5 3 13.5H12C12.1326 13.5 12.2598 13.4473 12.3536 13.3536C12.4473 13.2598 12.5 13.1326 12.5 13V8.75C12.5 8.55109 12.579 8.36032 12.7197 8.21967C12.8603 8.07902 13.0511 8 13.25 8C13.4489 8 13.6397 8.07902 13.7803 8.21967C13.921 8.36032 14 8.55109 14 8.75V13C14 13.5304 13.7893 14.0391 13.4142 14.4142C13.0391 14.7893 12.5304 15 12 15H3C2.46957 15 1.96086 14.7893 1.58579 14.4142C1.21071 14.0391 1 13.5304 1 13V4C1 3.46957 1.21071 2.96086 1.58579 2.58579C1.96086 2.21071 2.46957 2 3 2H7.25C7.44891 2 7.63968 2.07902 7.78033 2.21967C7.92098 2.36032 8 2.55109 8 2.75C8 2.94891 7.92098 3.13968 7.78033 3.28033C7.63968 3.42098 7.44891 3.5 7.25 3.5H3C2.86739 3.5 2.74021 3.55268 2.64645 3.64645C2.55268 3.74021 2.5 3.86739 2.5 4Z" fill="#78A5C6"/>
</svg>
