<svg width="22" height="24" viewBox="0 0 22 24" fill="none" xmlns="http://www.w3.org/2000/svg">
<path fill-rule="evenodd" clip-rule="evenodd" d="M10.2473 0.191994C9.93989 0.299552 9.43846 0.634886 9.13304 0.937251L8.57767 1.48695L7.96569 1.27171C7.20721 1.00507 6.52496 1.16327 5.94097 1.74143C4.98027 2.69252 5.19262 4.07548 6.47685 5.23216C7.10744 5.80003 7.3969 5.95849 7.98887 6.06003C8.48536 6.14502 8.55602 6.22851 8.32531 6.45691C8.08599 6.69384 8.69505 7.62362 9.08974 7.62362C9.20345 7.62362 9.52001 7.5108 9.79326 7.37291C10.4135 7.05989 10.4968 7.06089 11.0557 7.38732C11.5885 7.69859 11.5013 7.92499 10.7983 8.05561C10.2309 8.16091 10.3284 8.30257 11.156 8.57497L11.8192 8.79322L11.4394 8.9078C10.6547 9.1446 10.6614 9.1377 11.0278 9.32963C11.431 9.54073 11.4519 9.64892 11.1716 10.0725C10.968 10.3803 10.9688 10.3815 11.4018 10.3815C12.5794 10.3815 13.8827 11.1179 14.2514 11.9914C14.4572 12.4791 14.4049 12.649 14.1781 12.2294C13.8853 11.6877 13.213 11.3549 12.2931 11.2965C11.5299 11.248 11.3995 11.2747 11.0632 11.5492C10.7242 11.8259 10.7053 11.878 10.8725 12.0772C11.048 12.2866 10.9891 12.2951 9.76072 12.2366C8.6815 12.185 8.46371 12.2054 8.46371 12.357C8.46371 12.481 8.3928 12.511 8.24211 12.4504C7.1168 11.9986 6.96308 11.965 6.76568 12.1273C6.58726 12.2738 6.59347 12.3263 6.82772 12.652C7.07122 12.9907 7.07325 13.0138 6.85786 13.0097C6.73123 13.0073 6.27159 12.9296 5.83625 12.8372C5.31773 12.727 5.04485 12.7137 5.04485 12.7984C5.04485 13.0555 5.71963 13.7958 6.10584 13.9621L6.50103 14.1325L5.84373 14.1374C5.48221 14.14 5.14818 14.2036 5.10145 14.2784C5.0546 14.3534 5.2049 14.6072 5.43536 14.8425C5.66569 15.0779 5.79751 15.2705 5.72812 15.2705C5.65873 15.2705 5.53856 15.2077 5.46107 15.131C5.21744 14.8898 5.04485 15.1386 5.04485 15.7313C5.04485 16.264 5.02561 16.2972 4.75995 16.2223C3.88409 15.9754 3.79115 15.9804 3.86775 16.2702C3.90777 16.4219 4.12974 16.7279 4.36108 16.9503L4.78147 17.3546L4.0725 17.8168C3.31846 18.3084 2.63595 18.4181 2.09248 18.1349C1.6517 17.9053 1.62384 17.7536 1.95167 17.368C2.33066 16.9221 2.34725 16.3911 1.99219 16.0734C1.84544 15.942 1.60738 15.6709 1.46341 15.4708L1.20143 15.107L1.85709 15.193C2.60138 15.2908 3.01886 15.1377 3.01886 14.7671C3.01886 14.4933 2.77954 14.4129 1.81593 14.363L1.18281 14.3303L1.14394 13.7293C1.1076 13.1657 1.12013 13.1376 1.34641 13.2775C1.70109 13.4968 2.24 13.3214 2.33243 12.9566C2.4464 12.5068 2.27254 12.3124 2.04449 12.6347C1.89634 12.8442 1.81872 12.8698 1.67905 12.7549C1.58155 12.6747 1.3302 12.6341 1.12064 12.6645C0.911077 12.695 0.739627 12.6681 0.739627 12.6046C0.739627 12.5412 1.36059 11.8882 2.11945 11.1533C3.71023 9.61319 3.89181 9.36247 4.01261 8.54037L4.10125 7.93702L5.09588 7.98265C5.76142 8.01324 6.0638 7.98528 6.00948 7.89828C5.9649 7.82683 5.74382 7.73156 5.5183 7.68655C4.63307 7.5103 4.64624 7.52158 4.85593 7.12031C4.95989 6.92137 5.04485 6.68657 5.04485 6.59844C5.04485 6.51044 4.52506 7.22686 3.88979 8.19062C2.96885 9.58749 2.45336 10.2144 1.34742 11.2825C-0.221071 12.7973 -0.311227 13.0307 0.518035 13.4317L0.992876 13.6615V14.5756C0.992876 15.0783 1.0748 15.7197 1.17496 16.0006C1.27563 16.2831 1.34679 16.8778 1.33413 17.3306C1.31349 18.0644 1.3459 18.1841 1.64524 18.4806C1.93623 18.7686 2.13566 18.8267 3.18588 18.9287C5.65873 19.169 6.10875 19.4501 6.11673 20.7583C6.1204 21.3603 6.06228 21.552 5.75534 21.9492C5.55401 22.2097 5.42004 22.4532 5.45765 22.4903C5.54097 22.5728 6.0776 21.8771 6.36618 21.3123C6.48267 21.0845 6.60588 20.6332 6.64019 20.3094C6.75149 19.2579 6.24766 18.7442 4.85302 18.4874C3.83559 18.3 3.89498 18.2201 5.32722 17.8475C5.92223 17.6927 6.66741 17.3268 7.7964 16.6348C9.46784 15.6105 10.358 15.2089 11.2824 15.0628L11.8192 14.9778L11.4085 15.441C10.8227 16.1016 10.4897 16.8109 10.4897 17.3978C10.4897 17.9305 10.5652 18.0296 11.3761 18.5613C12.023 18.9854 12.0093 19.29 11.3174 19.8625C10.9987 20.1263 10.7642 20.4096 10.7963 20.4923C10.8283 20.5749 10.6585 20.7905 10.4188 20.9716C10.1792 21.1524 9.9832 21.3508 9.9832 21.4122C9.9832 21.4737 10.2124 21.5413 10.4925 21.5626L11.0016 21.6011L9.80301 22.4632C8.545 23.3679 7.99077 23.8698 8.11448 23.9923C8.19387 24.0709 9.78313 23.5333 11.1221 22.9749C11.5936 22.7782 12.7009 22.5019 13.7179 22.3271C15.4694 22.0259 16.1502 21.7824 15.984 21.5162C15.8473 21.2972 14.0989 21.4829 12.9058 21.8429C12.3195 22.0199 11.8067 22.1319 11.7663 22.0919C11.7259 22.0519 11.8756 21.8575 12.099 21.6598C12.5773 21.2367 13.5222 20.9304 14.6683 20.8269C15.9477 20.7114 15.9663 20.6183 14.8037 20.1477C13.6764 19.6914 13.6121 19.5239 14.6853 19.8394C15.4862 20.0749 16.1911 19.9859 16.2831 19.6375C16.3221 19.4898 16.4234 19.423 16.5517 19.4605C17.5575 19.7548 18.2739 19.5983 18.9866 18.9286C19.3496 18.5875 19.5226 18.289 19.6499 17.7839C19.7447 17.4081 19.8877 17.079 19.9676 17.0526C20.2814 16.949 20.0844 16.8362 19.5484 16.8124C18.9426 16.7853 18.3681 16.5459 18.0779 16.1995C17.9075 15.9961 17.9201 15.9956 18.3024 16.1913C19.4341 16.7704 20.7531 16.0483 21.3584 14.5183C21.4266 14.346 21.6016 13.9125 21.7475 13.555C22.0835 12.7306 22.0842 11.9862 21.7494 11.3015C21.428 10.6443 20.8992 10.1862 20.2341 9.98889C19.647 9.81477 19.6408 9.77641 19.9865 8.43846C20.4167 6.77332 20.2759 5.7524 19.505 4.94822C18.8753 4.29147 17.4098 3.78577 17.0331 4.09528C16.8537 4.2427 16.6812 4.16536 15.7214 3.50748C15.1612 3.1235 15.0564 3.09555 14.4358 3.16512C13.6159 3.25701 13.1591 3.47764 12.7207 3.99337C12.3603 4.41733 12.2835 4.30212 12.567 3.76258C12.8429 3.2377 13.307 2.87028 14.0946 2.55337C14.7864 2.27495 14.8058 2.25502 14.5536 2.08002C14.4087 1.97961 14.13 1.66132 13.9343 1.37275C13.1193 0.171435 11.6508 -0.298785 10.2473 0.191994ZM5.07676 5.93128C5.07815 6.20707 5.10411 6.3051 5.13438 6.14916C5.16464 5.99321 5.1635 5.76757 5.13184 5.64772C5.10019 5.52788 5.07537 5.6555 5.07676 5.93128ZM4.60724 9.26908C4.70866 9.55352 4.7916 9.97661 4.7916 10.2093C4.7916 10.715 4.89379 10.7298 5.55135 10.3188C5.82714 10.1465 6.19637 10.0054 6.37187 10.0054C6.54737 10.0054 6.69097 9.95191 6.69097 9.88647C6.69097 9.69192 5.89108 9.14698 5.30519 8.9424C4.44592 8.64229 4.39274 8.66711 4.60724 9.26908Z" fill="#433C3C"/>
</svg>
